<svg xmlns="http://www.w3.org/2000/svg" viewBox="0 0 620 620" fill="none">
  <defs>
    <filter id="softShadow" x="-30%" y="-30%" width="160%" height="160%">
      <feDropShadow dx="0" dy="10" stdDeviation="14" flood-color="#8F644B" flood-opacity=".08"/>
    </filter>
  </defs>

  <circle cx="310" cy="310" r="222" stroke="#E3C6AE" stroke-width="1.5" stroke-dasharray="4 7"/>
  <circle cx="310" cy="310" r="151" stroke="#E3C6AE" stroke-width="1.2" stroke-dasharray="4 7"/>
  <circle cx="310" cy="88" r="5" fill="#E98865"/>
  <circle cx="532" cy="310" r="5" fill="#E98865"/>
  <circle cx="310" cy="532" r="5" fill="#E98865"/>
  <circle cx="88" cy="310" r="5" fill="#E98865"/>

  <g stroke="#F05A32" stroke-width="5" stroke-linecap="round" stroke-linejoin="round">
    <path d="M250 350V267M370 350V267"/>
    <path d="M250 274h32c0 26 12 45 28 45s28-19 28-45h32"/>
    <path d="M250 350h32c0-26 12-45 28-45s28 19 28 45h32"/>
    <path d="M282 267v83M338 267v83"/>
    <path d="M250 303h33M337 303h33"/>
  </g>

  <g filter="url(#softShadow)">
    <circle cx="150" cy="150" r="78" fill="#FFFCF8" stroke="#DFC4AC" stroke-width="1.5"/>
    <circle cx="470" cy="150" r="78" fill="#FFFCF8" stroke="#DFC4AC" stroke-width="1.5"/>
    <circle cx="150" cy="470" r="78" fill="#FFFCF8" stroke="#DFC4AC" stroke-width="1.5"/>
    <circle cx="470" cy="470" r="78" fill="#FFFCF8" stroke="#DFC4AC" stroke-width="1.5"/>
  </g>

  <g stroke="#45413D" stroke-width="2.2" stroke-linecap="round" stroke-linejoin="round">
    <rect x="108" y="112" width="76" height="54" rx="4"/>
    <path d="M108 158h76M131 178h30M146 166v12"/>
    <path d="M126 128c4 17 11 24 20 24s16-7 20-24"/>
    <path d="M128 128c2 4 5 4 7 0 2 5 6 5 8 0 2 5 6 5 8 0 2 5 6 5 8 0 2 4 5 4 7 0" stroke="#E86A43"/>
  </g>
  <g stroke="#F05A32" stroke-width="2" stroke-linecap="round" stroke-linejoin="round">
    <path d="m178 153 11-6 11 6-11 7-11-7Z"/>
    <path d="M178 153v13l11 7 11-7v-13M189 160v13"/>
  </g>

  <g stroke="#45413D" stroke-width="2.2" stroke-linecap="round" stroke-linejoin="round">
    <path d="M427 132c11 7 24 10 43 10s32-3 43-10l-2 18c-12 7-26 10-41 10s-29-3-41-10l-2-18Z"/>
    <path d="M429 141c4-3 7-3 10 2 4-4 8-4 12 1 4-4 8-4 12 1 4-4 8-4 12 0 4-5 8-5 12-1 4-5 8-5 12-1 3-5 7-5 11-2" stroke="#E86A43"/>
    <path d="M430 170c10 7 24 10 40 10s30-3 40-10M427 170l3 13c13 7 27 10 40 10s27-3 40-10l3-13"/>
  </g>

  <g stroke="#45413D" stroke-width="2.2" stroke-linecap="round" stroke-linejoin="round">
    <path d="M104 465c4 26 22 47 46 47s42-21 46-47c-11-10-27-16-46-16s-35 6-46 16Z"/>
    <circle cx="120" cy="469" r="7"/>
    <circle cx="139" cy="488" r="7"/>
    <circle cx="161" cy="488" r="7"/>
    <circle cx="180" cy="469" r="7"/>
  </g>
  <g stroke="#F05A32" stroke-width="2" stroke-linecap="round">
    <circle cx="150" cy="447" r="16"/>
    <path d="M150 420v54M123 447h54"/>
  </g>

  <g stroke="#45413D" stroke-width="2.2" stroke-linecap="round" stroke-linejoin="round">
    <circle cx="446" cy="446" r="11"/>
    <circle cx="494" cy="446" r="11"/>
    <path d="M428 499v-29c0-10 8-18 18-18s18 8 18 18v29h-36Z"/>
    <path d="M476 499v-29c0-10 8-18 18-18s18 8 18 18v29h-36Z"/>
  </g>
  <g stroke="#F05A32" stroke-width="2" stroke-linecap="round" stroke-linejoin="round">
    <path d="M454 478h31"/>
    <path d="m458 474-5 4 5 4M481 474l5 4-5 4"/>
  </g>
</svg>
