<svg xmlns="http://www.w3.org/2000/svg" viewBox="0 0 72 72" fill="none">
  <circle cx="36" cy="36" r="36" fill="#F15B2A"/>
  <path d="M23 24h-5v7M49 24h5v7M23 48h-5v-7M49 48h5v-7" stroke="#fff" stroke-width="1.7" stroke-linecap="round" stroke-linejoin="round"/>
  <path d="M29.5 26.5c2.1 0 3.7 1.5 6.5 1.5s4.4-1.5 6.5-1.5c4.2 0 6.5 3.4 6.5 7.3 0 4.5-2.6 7-3.8 11.2-.8 2.9-1.4 5-3.2 5-2.2 0-1.7-8-6-8s-3.8 8-6 8c-1.8 0-2.4-2.1-3.2-5-1.2-4.2-3.8-6.7-3.8-11.2 0-3.9 2.3-7.3 6.5-7.3Z" stroke="#fff" stroke-width="1.7" stroke-linecap="round" stroke-linejoin="round"/>
</svg>
