<svg width="168" height="51" viewBox="0 0 168 51" fill="none" xmlns="http://www.w3.org/2000/svg">
<path d="M74.4576 12.7473L70.2559 17.2339V20.2249V30.1239C70.2559 31.1209 70.4695 31.9042 70.968 32.3315C71.6802 33.1149 73.1045 33.471 75.0273 33.3286L77.0213 33.2573V30.1239C76.8789 30.1239 76.7365 30.1239 76.594 30.1239C76.4516 30.1239 76.3092 30.1239 76.1667 30.1239C75.3121 30.1239 74.8136 30.0526 74.6 29.9102C74.4576 29.7678 74.3863 29.3405 74.3863 28.6996V20.1537H77.0213V17.1627H74.3863L74.4576 12.7473Z" fill="white"/>
<path d="M67.4792 24.9252C66.9807 24.5692 66.411 24.2843 65.8413 24.0707C65.2003 23.857 64.5594 23.6434 63.9185 23.5009C63.2775 23.3585 62.6366 23.2161 62.0669 23.0736C61.4259 22.9312 60.9274 22.7888 60.4289 22.6463C59.9304 22.5039 59.5743 22.2903 59.2895 22.0054C59.0046 21.7205 58.8622 21.4357 58.8622 21.0084C58.8622 20.6523 58.9334 20.3675 59.0758 20.225C59.2183 20.0114 59.4319 19.8689 59.7168 19.7977C59.9304 19.6553 60.2153 19.5841 60.5001 19.5841C60.785 19.5841 61.0698 19.5129 61.3547 19.5129C62.1381 19.5129 62.8502 19.6553 63.42 19.9402C63.9897 20.225 64.3458 20.7947 64.417 21.7205H68.6899C68.6187 20.7235 68.3338 19.8689 67.9065 19.1568C67.4792 18.5159 66.9095 17.9461 66.2686 17.5188C65.6276 17.0915 64.8443 16.8067 64.0609 16.6643C63.2775 16.5218 62.3517 16.3794 61.4971 16.3794C60.6426 16.3794 59.7168 16.4506 58.9334 16.593C58.0788 16.7355 57.3667 17.0203 56.6545 17.4476C56.0136 17.8749 55.4438 18.3734 55.0165 19.0856C54.5892 19.7265 54.3756 20.6523 54.3756 21.7205C54.3756 22.4327 54.518 23.0736 54.8029 23.5721C55.0878 24.0707 55.4438 24.4979 55.9423 24.7828C56.4409 25.1389 57.0106 25.3525 57.5803 25.5662C58.2212 25.7798 58.8622 25.9223 59.5031 26.1359C61.0698 26.492 62.3517 26.7768 63.2775 27.1329C64.1321 27.489 64.6306 27.9875 64.6306 28.6997C64.6306 29.1269 64.4882 29.483 64.3458 29.6967C64.1321 29.9815 63.9185 30.1952 63.6336 30.3376C63.3487 30.48 63.0639 30.6225 62.7078 30.6937C62.3517 30.7649 62.0669 30.8361 61.7108 30.8361C61.2835 30.8361 60.8562 30.7649 60.4289 30.6937C60.0016 30.5512 59.6455 30.4088 59.3607 30.1952C59.0758 29.9815 58.791 29.6967 58.5773 29.3406C58.3637 28.9845 58.2925 28.5572 58.2925 28.0587H54.0195C54.0907 29.1982 54.3044 30.0527 54.8029 30.8361C55.2302 31.5483 55.7999 32.1892 56.5833 32.6165C57.2954 33.0438 58.0788 33.3999 59.0046 33.6135C59.9304 33.8272 60.8562 33.8984 61.782 33.8984C62.7078 33.8984 63.6336 33.8272 64.5594 33.6135C65.414 33.3999 66.2686 33.115 66.9807 32.6877C67.6929 32.2604 68.2626 31.6195 68.6899 30.9073C69.1172 30.1952 69.3308 29.2694 69.3308 28.2011C69.3308 27.4178 69.1884 26.7768 68.9035 26.2783C68.3338 25.7086 67.9777 25.2813 67.4792 24.9252Z" fill="white"/>
<path d="M98.0296 26.9906C98.0296 28.4149 97.6023 29.3407 96.819 29.9104C96.0356 30.4802 95.181 30.6938 94.2552 30.6938C93.6855 30.6938 93.187 30.5514 92.7597 30.1953C92.3324 29.8392 92.1188 29.3407 92.1188 28.6286C92.1188 27.8452 92.4748 27.2043 93.1158 26.8482C93.5431 26.6345 94.184 26.4209 95.0386 26.2785L96.0356 26.0648C96.5341 25.9936 96.8902 25.8512 97.1751 25.7799C97.4599 25.7087 97.7448 25.5663 97.9584 25.3527L98.0296 26.9906ZM102.516 32.1181C102.374 31.9045 102.303 31.5484 102.303 30.9787C102.303 30.2665 102.303 29.6256 102.303 29.1271V21.7207C102.303 19.7979 101.59 18.4448 100.237 17.7326C98.8842 17.0205 97.1751 16.7356 95.4659 16.7356C92.7597 16.7356 90.8369 17.4477 89.6974 18.8721C88.9853 19.7979 88.558 20.9373 88.4868 22.3616H92.5461C92.6885 21.7207 92.8309 21.2222 93.1158 20.8661C93.5431 20.3676 94.2552 20.1539 95.2522 20.1539C96.1068 20.1539 96.819 20.2964 97.3175 20.51C97.7448 20.7237 98.0296 21.2222 98.0296 21.8631C98.0296 22.4328 97.7448 22.7889 97.1038 23.0738C96.7478 23.2162 96.2493 23.3586 95.4659 23.4298L94.0416 23.6435C92.4036 23.8571 91.1218 24.2132 90.3384 24.6405C88.7717 25.4951 87.9883 26.9906 87.9883 28.9846C87.9883 30.5514 88.4868 31.6908 89.4126 32.5454C90.3384 33.3288 91.5491 33.7561 93.0446 33.7561C94.184 33.7561 95.2522 33.4712 96.178 32.9727C96.9614 32.5454 97.6024 31.9757 98.1721 31.3347C98.1721 31.6908 98.2433 32.0469 98.3145 32.3318C98.3857 32.6166 98.4569 32.9015 98.5994 33.2576H103.157V32.6166C102.872 32.4742 102.659 32.3318 102.516 32.1181Z" fill="white"/>
<path d="M110.35 30.2669C110.208 30.2669 110.137 30.2669 110.065 30.2669C109.211 30.2669 108.712 30.1956 108.499 30.0532C108.356 29.9108 108.285 29.4835 108.285 28.8425V20.2967H110.92V17.3057H108.285V12.8191L104.297 17.3057V20.2967V30.1956C104.297 31.1927 104.511 31.976 105.009 32.4033C105.65 33.0443 106.647 33.4003 108.356 33.4715C110.92 33.5428 111.846 33.3291 111.846 33.3291C111.062 32.4745 110.564 31.4775 110.35 30.2669Z" fill="white"/>
<path d="M121.887 26.9905C121.887 28.4148 121.46 29.3406 120.676 29.9104C119.893 30.4801 119.038 30.6937 118.113 30.6937C117.543 30.6937 117.044 30.5513 116.617 30.1952C116.19 29.8391 115.976 29.3406 115.976 28.6285C115.976 27.8451 116.332 27.2042 116.973 26.8481C117.4 26.6345 118.041 26.4208 118.896 26.2784L119.893 26.0647C120.392 25.9935 120.748 25.8511 121.032 25.7799C121.317 25.7087 121.602 25.5662 121.816 25.3526L121.887 26.9905ZM126.302 32.118C126.16 31.9044 126.089 31.5483 126.089 30.9786C126.089 30.2664 126.089 29.6255 126.089 29.127V21.7206C126.089 19.7978 125.377 18.4447 124.024 17.7325C122.67 17.0204 121.032 16.6643 119.323 16.6643C116.617 16.6643 114.694 17.3765 113.555 18.8008C112.843 19.7266 112.415 20.866 112.344 22.2903H116.403C116.546 21.6494 116.688 21.1509 116.973 20.7948C117.4 20.2963 118.113 20.0826 119.11 20.0826C119.964 20.0826 120.676 20.2251 121.175 20.4387C121.602 20.6524 121.887 21.1509 121.887 21.7918C121.887 22.3615 121.602 22.7176 120.961 23.0025C120.605 23.1449 120.107 23.2873 119.323 23.3585L117.899 23.5722C116.261 23.7858 114.979 24.1419 114.196 24.5692C112.629 25.4238 111.846 26.9193 111.846 28.9133C111.846 30.4801 112.344 31.6195 113.27 32.4741C114.196 33.3287 115.406 33.6848 116.902 33.6848C118.041 33.6848 119.11 33.3999 120.035 32.9014C120.819 32.4741 121.46 31.9044 122.03 31.2635C122.03 31.6195 122.101 31.9756 122.172 32.2605C122.243 32.5453 122.314 32.8302 122.457 33.1863H127.015V32.5453C126.658 32.4741 126.516 32.3317 126.302 32.118Z" fill="white"/>
<path d="M129.793 21.5067C129.793 19.8688 131.003 18.8006 133.353 18.8006C135.632 18.8006 137.27 19.6551 137.626 22.1477H139.478C139.051 18.5869 136.772 17.1626 133.353 17.1626C129.864 17.1626 127.799 19.0854 127.799 21.7204C127.799 27.9161 137.911 24.7114 137.911 29.2692C137.911 30.8359 136.7 32.189 133.994 32.189C131.217 32.189 129.864 31.192 129.294 28.4858H127.514C127.656 31.4769 129.793 33.827 133.496 33.827C137.199 33.827 139.905 32.2603 139.905 29.198C139.976 23.1447 129.793 25.7797 129.793 21.5067Z" fill="white"/>
<path d="M156.213 21.5067C156.213 19.8688 157.424 18.8006 159.774 18.8006C162.053 18.8006 163.691 19.6551 164.047 22.1477H165.899C165.471 18.5869 163.192 17.1626 159.774 17.1626C156.285 17.1626 154.219 19.0854 154.219 21.7204C154.219 27.9161 164.332 24.7114 164.332 29.2692C164.332 30.8359 163.121 32.189 160.415 32.189C157.638 32.189 156.285 31.192 155.644 28.4858H153.863C154.006 31.4769 156.142 33.827 159.845 33.827C163.549 33.827 166.255 32.2603 166.255 29.198C166.397 23.1447 156.213 25.7797 156.213 21.5067Z" fill="white"/>
<path d="M152.012 17.5901L146.956 31.121L141.828 17.5901H139.834L145.958 33.4711V33.6135L144.392 37.9577H146.315L153.935 17.5901H152.012Z" fill="white"/>
<path d="M87.5622 16.8064C86.2803 16.8064 85.2833 17.1625 84.5 17.8034C84.0015 18.2307 83.4317 18.9429 82.7908 20.0111V17.2337H78.8027V33.3284H83.0044V25.5659C83.0044 24.284 83.1469 23.3582 83.5029 22.7173C84.0727 21.5778 85.2121 21.0793 86.9213 21.0793C87.0637 21.0793 87.2061 21.0793 87.4198 21.0793C87.5622 21.0793 87.7759 21.0793 87.9183 21.0793V16.8064C87.8471 16.8064 87.7759 16.8064 87.7759 16.8064C87.7046 16.8064 87.6334 16.8064 87.5622 16.8064Z" fill="white"/>
<path d="M166.397 18.943C165.97 18.943 165.614 18.5869 165.614 18.1596C165.614 17.7323 165.97 17.3762 166.397 17.3762C166.825 17.3762 167.181 17.7323 167.181 18.1596C167.181 18.5869 166.825 18.943 166.397 18.943ZM166.397 17.1626C165.828 17.1626 165.4 17.5899 165.4 18.1596C165.4 18.7293 165.828 19.1566 166.397 19.1566C166.967 19.1566 167.394 18.7293 167.394 18.1596C167.394 17.5899 166.967 17.1626 166.397 17.1626Z" fill="white"/>
<path d="M166.469 18.0884H166.256V17.8036H166.469C166.54 17.8036 166.612 17.8036 166.612 17.946C166.612 18.0172 166.54 18.0884 166.469 18.0884ZM166.612 18.1596C166.754 18.0884 166.754 18.0172 166.754 17.946C166.754 17.8036 166.612 17.6611 166.469 17.6611H165.971V18.5869H166.184V18.2309H166.398C166.54 18.2309 166.54 18.3021 166.54 18.3733C166.54 18.4445 166.54 18.5157 166.54 18.5869H166.754C166.754 18.5157 166.754 18.4445 166.754 18.3733C166.754 18.3021 166.754 18.1596 166.612 18.1596Z" fill="white"/>
<path d="M41.02 17.1629L20.51 0L0 17.1629L9.61407 25.2102L0 33.2576L20.51 50.4205L41.02 33.2576L31.406 25.2102L41.02 17.1629ZM19.6554 34.0409V47.5006L3.63198 34.0409H19.6554ZM3.63198 32.403L10.9672 26.2785L18.2311 32.403H3.63198ZM21.3646 34.0409H37.4593L21.3646 47.5006V34.0409ZM21.3646 2.84861L37.4593 16.3083H21.3646V2.84861ZM19.6554 16.3083H3.63198L19.7267 2.84861V16.3083H19.6554ZM19.6554 18.0175V31.4772L3.63198 18.0175H19.6554ZM22.8601 18.0175H37.4593L30.1241 24.142L22.8601 18.0175ZM37.4593 32.403H21.3646V18.9433L37.4593 32.403Z" fill="white"/>
</svg>
